<mxfile host="app.diagrams.net" modified="2021-07-08T20:55:02.285Z" agent="5.0 (Macintosh; Intel Mac OS X 10_15_7) AppleWebKit/537.36 (KHTML, like Gecko) Chrome/91.0.4472.114 Safari/537.36" etag="FtwlmBbSYXCdhJZNthck" version="14.7.7" type="github">
  <diagram id="moBe452DDdbtaOUcGEtA" name="Page-1">
    <mxGraphModel dx="1406" dy="645" grid="1" gridSize="10" guides="1" tooltips="1" connect="1" arrows="1" fold="1" page="1" pageScale="1" pageWidth="850" pageHeight="1100" math="0" shadow="0">
      <root>
        <mxCell id="0" />
        <mxCell id="1" parent="0" />
        <mxCell id="scwVnEHw0UXWg4TN3zY3-3" value="" style="shape=image;html=1;verticalAlign=top;verticalLabelPosition=bottom;labelBackgroundColor=#ffffff;imageAspect=0;aspect=fixed;image=https://cdn1.iconfinder.com/data/icons/logotypes/32/chrome-128.png" vertex="1" parent="1">
          <mxGeometry x="260" y="50" width="70" height="70" as="geometry" />
        </mxCell>
        <mxCell id="scwVnEHw0UXWg4TN3zY3-7" value="" style="shape=image;html=1;verticalAlign=top;verticalLabelPosition=bottom;labelBackgroundColor=#ffffff;imageAspect=0;aspect=fixed;image=https://cdn1.iconfinder.com/data/icons/DarkGlass_Reworked/128x128/mimetypes/tgz.png" vertex="1" parent="1">
          <mxGeometry x="560" y="35.5" width="99" height="99" as="geometry" />
        </mxCell>
        <mxCell id="scwVnEHw0UXWg4TN3zY3-8" value="" style="endArrow=classic;html=1;exitX=1;exitY=0.25;exitDx=0;exitDy=0;entryX=-0.01;entryY=0.328;entryDx=0;entryDy=0;entryPerimeter=0;" edge="1" parent="1" source="scwVnEHw0UXWg4TN3zY3-3" target="scwVnEHw0UXWg4TN3zY3-7">
          <mxGeometry width="50" height="50" relative="1" as="geometry">
            <mxPoint x="330" y="100" as="sourcePoint" />
            <mxPoint x="380" y="50" as="targetPoint" />
          </mxGeometry>
        </mxCell>
        <mxCell id="scwVnEHw0UXWg4TN3zY3-9" value="" style="endArrow=classic;html=1;entryX=1;entryY=0.75;entryDx=0;entryDy=0;exitX=-0.02;exitY=0.682;exitDx=0;exitDy=0;exitPerimeter=0;" edge="1" parent="1" source="scwVnEHw0UXWg4TN3zY3-7" target="scwVnEHw0UXWg4TN3zY3-3">
          <mxGeometry width="50" height="50" relative="1" as="geometry">
            <mxPoint x="510" y="150" as="sourcePoint" />
            <mxPoint x="560" y="100" as="targetPoint" />
          </mxGeometry>
        </mxCell>
      </root>
    </mxGraphModel>
  </diagram>
</mxfile>
